<svg viewBox="0 0 360 640" xmlns="http://www.w3.org/2000/svg">
  <defs>
    <linearGradient id="bg" x1="0%" y1="0%" x2="100%" y2="100%">
      <stop offset="0%" stop-color="#050510"/>
      <stop offset="50%" stop-color="#0A0A1A"/>
      <stop offset="100%" stop-color="#11112A"/>
    </linearGradient>
    <linearGradient id="vGrad" x1="0%" y1="0%" x2="100%" y2="100%">
      <stop offset="0%" stop-color="#00D9FF"/>
      <stop offset="50%" stop-color="#8B5CF6"/>
      <stop offset="100%" stop-color="#FF00E5"/>
    </linearGradient>
    <filter id="soft">
      <feGaussianBlur stdDeviation="25"/>
    </filter>
  </defs>
  <rect width="360" height="640" fill="url(#bg)"/>
  <circle cx="40" cy="100" r="120" fill="#00D9FF" opacity="0.06" filter="url(#soft)"/>
  <circle cx="320" cy="520" r="150" fill="#FF00E5" opacity="0.06" filter="url(#soft)"/>

  <rect x="16" y="16" width="328" height="44" rx="12" fill="#FFFFFF" opacity="0.05"/>
  <rect x="180" y="32" width="90" height="10" rx="5" fill="#FFFFFF" opacity="0.15"/>

  <!-- Alert form mock -->
  <rect x="16" y="80" width="328" height="150" rx="20" fill="#FFFFFF" opacity="0.06"/>
  <rect x="32" y="100" width="80" height="10" rx="5" fill="#8B5CF6" opacity="0.6"/>
  <rect x="32" y="124" width="130" height="12" rx="6" fill="#FFFFFF" opacity="0.15"/>
  <rect x="32" y="152" width="120" height="12" rx="6" fill="#FFFFFF" opacity="0.15"/>
  <rect x="32" y="190" width="160" height="28" rx="14" fill="#00D9FF" opacity="0.5"/>

  <!-- Alert item -->
  <rect x="16" y="246" width="328" height="64" rx="16" fill="#FFFFFF" opacity="0.05"/>
  <rect x="32" y="264" width="60" height="10" rx="5" fill="#00D9FF" opacity="0.6"/>
  <rect x="32" y="286" width="140" height="10" rx="5" fill="#FFFFFF" opacity="0.15"/>
  <circle cx="316" cy="278" r="10" fill="#FF00E5" opacity="0.3"/>

  <rect x="16" y="322" width="328" height="64" rx="16" fill="#FFFFFF" opacity="0.05"/>
  <rect x="32" y="340" width="60" height="10" rx="5" fill="#8B5CF6" opacity="0.6"/>
  <rect x="32" y="362" width="140" height="10" rx="5" fill="#FFFFFF" opacity="0.15"/>
  <circle cx="316" cy="354" r="10" fill="#00D9FF" opacity="0.3"/>

  <!-- Intelligent alerts -->
  <rect x="16" y="402" width="328" height="120" rx="20" fill="#FFFFFF" opacity="0.05"/>
  <rect x="32" y="420" width="150" height="10" rx="5" fill="#FF00E5" opacity="0.6"/>
  <rect x="32" y="444" width="200" height="10" rx="5" fill="#FFFFFF" opacity="0.12"/>
  <rect x="32" y="478" width="180" height="26" rx="13" fill="#FFFFFF" opacity="0.1"/>

  <rect x="60" y="580" width="240" height="44" rx="22" fill="#FFFFFF" opacity="0.06"/>
  <circle cx="120" cy="602" r="8" fill="#00D9FF" opacity="0.5"/>
  <circle cx="180" cy="602" r="8" fill="#FFFFFF" opacity="0.2"/>
  <circle cx="240" cy="602" r="8" fill="#FFFFFF" opacity="0.2"/>

  <text x="180" y="555" text-anchor="middle" font-family="Inter, sans-serif" font-size="13" font-weight="600" fill="#9999C0" letter-spacing="1">CAPTURA — ALERTAS</text>
</svg>
